<?xml version="1.0" encoding="UTF-8" standalone="no"?>
<!-- Created with Inkscape (http://www.inkscape.org/) -->

<svg
   xmlns:dc="http://purl.org/dc/elements/1.1/"
   xmlns:cc="http://creativecommons.org/ns#"
   xmlns:rdf="http://www.w3.org/1999/02/22-rdf-syntax-ns#"
   xmlns:svg="http://www.w3.org/2000/svg"
   xmlns="http://www.w3.org/2000/svg"
   xmlns:sodipodi="http://sodipodi.sourceforge.net/DTD/sodipodi-0.dtd"
   xmlns:inkscape="http://www.inkscape.org/namespaces/inkscape"
   id="svg2"
   version="1.1"
   inkscape:version="0.91 r13725"
   width="453.54375"
   height="340.1575"
   xml:space="preserve"
   sodipodi:docname="representation-in-gis.svg"><metadata
     id="metadata8"><rdf:RDF><cc:Work
         rdf:about=""><dc:format>image/svg+xml</dc:format><dc:type
           rdf:resource="http://purl.org/dc/dcmitype/StillImage" /><dc:title></dc:title></cc:Work></rdf:RDF></metadata><defs
     id="defs6"><clipPath
       clipPathUnits="userSpaceOnUse"
       id="clipPath30"><path
         d="m 0,0 362.83385,0 0,20.52794 L 0,20.52794 0,0 z"
         id="path32" /></clipPath><clipPath
       clipPathUnits="userSpaceOnUse"
       id="clipPath42"><path
         d="m 0,0 362.835,0 0,272.126 L 0,272.126 0,0 z"
         id="path44" /></clipPath><linearGradient
       x1="0"
       y1="0"
       x2="362.834"
       y2="0"
       gradientUnits="userSpaceOnUse"
       id="linearGradient46"><stop
         style="stop-opacity:1;stop-color:#cccccc"
         offset="0"
         id="stop48" /><stop
         style="stop-opacity:1;stop-color:#a6a6a6"
         offset="362.834"
         id="stop50" /></linearGradient><clipPath
       clipPathUnits="userSpaceOnUse"
       id="clipPath66"><path
         d="m 0,0 362.835,0 0,3.9851 L 0,3.9851 0,0 z"
         id="path68" /></clipPath><linearGradient
       x1="0"
       y1="0"
       x2="0"
       y2="3.98505"
       gradientUnits="userSpaceOnUse"
       id="linearGradient70"><stop
         style="stop-opacity:1;stop-color:#ffffff"
         offset="0"
         id="stop72" /><stop
         style="stop-opacity:1;stop-color:#808080"
         offset="3.98505"
         id="stop74" /></linearGradient><clipPath
       clipPathUnits="userSpaceOnUse"
       id="clipPath92"><path
         d="M 0,0 596,0 596,463 0,463 0,0 z"
         id="path94" /></clipPath><clipPath
       clipPathUnits="userSpaceOnUse"
       id="clipPath130"><path
         d="M 0,4630 0,0 l 5960,0 0,4630 -5960,0 z m 1325,-694.2 18.6,-40.8 108.6,49.8 -91.2,-17.4 72,58.2 -108,-49.8 z"
         clip-rule="evenodd"
         id="path132" /></clipPath><clipPath
       clipPathUnits="userSpaceOnUse"
       id="clipPath144"><path
         d="M 0,4630 0,0 l 5960,0 0,4630 -5960,0 z m 2562.2,-720 45,0 0,118.8 -22.2,-90 -22.8,90 0,-118.8 z"
         clip-rule="evenodd"
         id="path146" /></clipPath><clipPath
       clipPathUnits="userSpaceOnUse"
       id="clipPath158"><path
         d="M 0,4630 0,0 l 5960,0 0,4630 -5960,0 z m 3880.4,-735 17.4,41.4 -109.2,46.8 74.4,-56.4 -91.8,15 109.2,-46.8 z"
         clip-rule="evenodd"
         id="path160" /></clipPath><clipPath
       clipPathUnits="userSpaceOnUse"
       id="clipPath172"><path
         d="M 0,4630 0,0 l 5960,0 0,4630 -5960,0 z m 1050.2,-2421 45,0 0,118.8 -22.2,-90 -22.8,90 0,-118.8 z"
         clip-rule="evenodd"
         id="path174" /></clipPath><clipPath
       clipPathUnits="userSpaceOnUse"
       id="clipPath186"><path
         d="M 0,4630 0,0 l 5960,0 0,4630 -5960,0 z m 1050.2,-3924 45,0 0,118.8 -22.2,-90 -22.8,90 0,-118.8 z"
         clip-rule="evenodd"
         id="path188" /></clipPath><clipPath
       clipPathUnits="userSpaceOnUse"
       id="clipPath200"><path
         d="M 0,4630 0,0 l 5960,0 0,4630 -5960,0 z m 2024.6,-1651.2 25.2,-37.2 98.4,66.6 -87,-31.8 61.8,69.6 -98.4,-67.2 z"
         clip-rule="evenodd"
         id="path202" /></clipPath><clipPath
       clipPathUnits="userSpaceOnUse"
       id="clipPath214"><path
         d="M 0,4630 0,0 l 5960,0 0,4630 -5960,0 z m 3423.8,-1662 13.2,43.2 -114,35.4 79.8,-48.6 -93,5.4 114,-35.4 z"
         clip-rule="evenodd"
         id="path216" /></clipPath><clipPath
       clipPathUnits="userSpaceOnUse"
       id="clipPath228"><path
         d="M 0,4630 0,0 l 5960,0 0,4630 -5960,0 z m 3803,-1632.6 37.2,-25.2 67.2,97.8 -69,-61.8 31.8,87.6 -67.2,-98.4 z"
         clip-rule="evenodd"
         id="path230" /></clipPath><clipPath
       clipPathUnits="userSpaceOnUse"
       id="clipPath242"><path
         d="M 0,4630 0,0 l 5960,0 0,4630 -5960,0 z m 1768.4,-2259 42,-16.2 43.2,110.4 -53.4,-75.6 12,92.4 -43.8,-111 z"
         clip-rule="evenodd"
         id="path244" /></clipPath><clipPath
       clipPathUnits="userSpaceOnUse"
       id="clipPath256"><path
         d="M 0,4630 0,0 l 5960,0 0,4630 -5960,0 z m 1535.6,-2602.8 35.4,-27.6 72.6,93.6 -72.6,-57.6 37.2,85.2 -72.6,-93.6 z"
         clip-rule="evenodd"
         id="path258" /></clipPath><clipPath
       clipPathUnits="userSpaceOnUse"
       id="clipPath270"><path
         d="M 0,4630 0,0 l 5960,0 0,4630 -5960,0 z m 1550,-2785.2 0,-45 118.8,0 -90,22.2 90,22.8 -118.8,0 z"
         clip-rule="evenodd"
         id="path272" /></clipPath><clipPath
       clipPathUnits="userSpaceOnUse"
       id="clipPath284"><path
         d="M 0,4630 0,0 l 5960,0 0,4630 -5960,0 z m 4056.8,-2459.4 36.6,27 -70.8,96 35.4,-86.4 -72,59.4 70.8,-96 z"
         clip-rule="evenodd"
         id="path286" /></clipPath><clipPath
       clipPathUnits="userSpaceOnUse"
       id="clipPath298"><path
         d="M 0,4630 0,0 5960,0 5960,4630 0,4630 z M 2594,776.8 2613.8,736 2720.6,788.8 2630,769 2700.8,829 2594,776.8 z"
         clip-rule="evenodd"
         id="path300" /></clipPath><clipPath
       clipPathUnits="userSpaceOnUse"
       id="clipPath312"><path
         d="M 0,4630 0,0 l 5960,0 0,4630 -5960,0 z m 3776.6,-3700.2 34.2,-28.8 76.8,90.6 -75,-54.6 40.8,83.4 -76.8,-90.6 z"
         clip-rule="evenodd"
         id="path314" /></clipPath><clipPath
       clipPathUnits="userSpaceOnUse"
       id="clipPath326"><path
         d="M 0,4630 0,0 l 5960,0 0,4630 -5960,0 z m 4847.6,-3889.2 37.8,24 -63.6,100.2 29.4,-88.2 -67.2,64.8 63.6,-100.8 z"
         clip-rule="evenodd"
         id="path328" /></clipPath></defs><sodipodi:namedview
     pagecolor="#ffffff"
     bordercolor="#666666"
     borderopacity="1"
     objecttolerance="10"
     gridtolerance="10"
     guidetolerance="10"
     inkscape:pageopacity="0"
     inkscape:pageshadow="2"
     inkscape:window-width="1680"
     inkscape:window-height="1002"
     id="namedview4"
     showgrid="false"
     inkscape:zoom="1.9623521"
     inkscape:cx="236.03191"
     inkscape:cy="196.5911"
     inkscape:window-x="0"
     inkscape:window-y="0"
     inkscape:window-maximized="1"
     inkscape:current-layer="g10" /><g
     id="g10"
     inkscape:groupmode="layer"
     inkscape:label="representation-in-gis-SLIDE"
     transform="matrix(1.25,0,0,-1.25,35.433125,38.318625)"><text
       id="text56"
       transform="scale(1,-1)"
       x="-16.895214"
       y="-24.9944"><tspan
         y="-24.9944"
         x="-16.895214"
         id="tspan58"
         sodipodi:role="line"
         style="font-size:14.34619999px;font-variant:normal;font-weight:normal;writing-mode:lr-tb;fill:#000000;fill-opacity:1;fill-rule:nonzero;stroke:none;font-family:CMSS12;-inkscape-font-specification:CMSS12" /></text>
<g
       id="g88"
       transform="matrix(0.48798,0,0,0.48798,11.113229,-198.1926)"><g
         id="g90"
         clip-path="url(#clipPath92)"><g
           id="g96"
           transform="scale(0.1,0.1)"><g
             id="g98"><path
               d="m 3017,4405 c 0,-114.32 -193.41,-207 -432,-207 -238.59,0 -432,92.68 -432,207 0,114.32 193.41,207 432,207 238.59,0 432,-92.68 432,-207 z"
               style="fill:none;stroke:#000000;stroke-width:9;stroke-linecap:butt;stroke-linejoin:miter;stroke-miterlimit:10;stroke-opacity:1;stroke-dasharray:none"
               id="path100"
               inkscape:connector-curvature="0" /><path
               d="m 290,2146 0,0 c -34.794,0 -63,-28.21 -63,-63 l 0,-513 c 0,-34.79 28.206,-63 63,-63 l 1161,0 c 34.79,0 63,28.21 63,63 l 0,513 c 0,34.79 -28.21,63 -63,63 l -1161,0 z"
               style="fill:none;stroke:#000000;stroke-width:9;stroke-linecap:butt;stroke-linejoin:miter;stroke-miterlimit:10;stroke-opacity:1;stroke-dasharray:none"
               id="path102"
               inkscape:connector-curvature="0" /><path
               d="m 290,652 0,0 c -34.794,0 -63,-28.206 -63,-62.999 l 0,-513.0005 c 0,-34.7937 28.206,-63 63,-63 l 1161,0 c 34.79,0 63,28.2063 63,63 L 1514,589 c 0,34.794 -28.21,63 -63,63 l -1161,0 z"
               style="fill:none;stroke:#000000;stroke-width:9;stroke-linecap:butt;stroke-linejoin:miter;stroke-miterlimit:10;stroke-opacity:1;stroke-dasharray:none"
               id="path104"
               inkscape:connector-curvature="0" /><path
               d="m 2009,652 0,0 c -34.79,0 -63,-28.206 -63,-62.999 L 1946,283 c 0,-34.793 28.21,-63 63,-63 l 945,0 c 34.79,0 63,28.207 63,63 l 0,306 c 0,34.794 -28.21,63 -63,63 l -945,0 z"
               style="fill:none;stroke:#000000;stroke-width:9;stroke-linecap:butt;stroke-linejoin:miter;stroke-miterlimit:10;stroke-opacity:1;stroke-dasharray:none"
               id="path106"
               inkscape:connector-curvature="0" /><path
               d="m 3296,652 0,0 c -34.79,0 -63,-28.206 -63,-62.999 L 3233,283 c 0,-34.793 28.21,-63 63,-63 l 945,0 c 34.79,0 63,28.207 63,63 l 0,306 c 0,34.794 -28.21,63 -63,63 l -945,0 z"
               style="fill:none;stroke:#000000;stroke-width:9;stroke-linecap:butt;stroke-linejoin:miter;stroke-miterlimit:10;stroke-opacity:1;stroke-dasharray:none"
               id="path108"
               inkscape:connector-curvature="0" /><path
               d="m 4592,652 0,0 c -34.79,0 -63,-28.206 -63,-62.999 l 0,-513.0005 c 0,-34.7937 28.21,-63 63,-63 l 1161,0 c 34.79,0 63,28.2063 63,63 L 5816,589 c 0,34.794 -28.21,63 -63,63 l -1161,0 z"
               style="fill:none;stroke:#000000;stroke-width:9;stroke-linecap:butt;stroke-linejoin:miter;stroke-miterlimit:10;stroke-opacity:1;stroke-dasharray:none"
               id="path110"
               inkscape:connector-curvature="0" /><path
               d="M 19.9998,1084 5933,1084"
               style="fill:none;stroke:#000000;stroke-width:18;stroke-linecap:butt;stroke-linejoin:miter;stroke-miterlimit:10;stroke-opacity:1;stroke-dasharray:72;stroke-dashoffset:0"
               id="path112"
               inkscape:connector-curvature="0" /><path
               d="M 19.9998,2578 5933,2578"
               style="fill:#550000;stroke:#000000;stroke-width:18;stroke-linecap:butt;stroke-linejoin:miter;stroke-miterlimit:10;stroke-opacity:1;stroke-dasharray:72;stroke-dashoffset:0"
               id="path114"
               inkscape:connector-curvature="0" /><path
               d="m 290,3856 0,0 c -34.794,0 -63,-28.21 -63,-63 l 0,-513 c 0,-34.79 28.206,-63 63,-63 l 1161,0 c 34.79,0 63,28.21 63,63 l 0,513 c 0,34.79 -28.21,63 -63,63 l -1161,0 z"
               style="fill:none;stroke:#000000;stroke-width:9;stroke-linecap:butt;stroke-linejoin:miter;stroke-miterlimit:10;stroke-opacity:1;stroke-dasharray:none"
               id="path116"
               inkscape:connector-curvature="0" /><path
               d="m 3728,3856 0,0 c -34.79,0 -63,-28.21 -63,-63 l 0,-513 c 0,-34.79 28.21,-63 63,-63 l 1152,0 c 34.79,0 63,28.21 63,63 l 0,513 c 0,34.79 -28.21,63 -63,63 l -1152,0 z"
               style="fill:none;stroke:#000000;stroke-width:9;stroke-linecap:butt;stroke-linejoin:miter;stroke-miterlimit:10;stroke-opacity:1;stroke-dasharray:none"
               id="path118"
               inkscape:connector-curvature="0" /><path
               d="m 2009,3856 0,0 c -34.79,0 -63,-28.21 -63,-63 l 0,-513 c 0,-34.79 28.21,-63 63,-63 l 1161,0 c 34.79,0 63,28.21 63,63 l 0,513 c 0,34.79 -28.21,63 -63,63"
               style="fill:#e6e6e6;fill-opacity:1;fill-rule:evenodd;stroke:none"
               id="path120"
               inkscape:connector-curvature="0" /><path
               d="m 2009,3856 0,0 c -34.79,0 -63,-28.21 -63,-63 l 0,-513 c 0,-34.79 28.21,-63 63,-63 l 1161,0 c 34.79,0 63,28.21 63,63 l 0,513 c 0,34.79 -28.21,63 -63,63 l -1161,0 z"
               style="fill:none;stroke:#000000;stroke-width:9;stroke-linecap:butt;stroke-linejoin:miter;stroke-miterlimit:10;stroke-opacity:1;stroke-dasharray:9, 54;stroke-dashoffset:54"
               id="path122"
               inkscape:connector-curvature="0" /><path
               d="m 3710,2146 0,0 c -34.79,0 -63,-28.21 -63,-63 l 0,-513 c 0,-34.79 28.21,-63 63,-63 l 1161,0 c 34.79,0 63,28.21 63,63 l 0,513 c 0,34.79 -28.21,63 -63,63 l -1161,0 z"
               style="fill:none;stroke:#000000;stroke-width:9;stroke-linecap:butt;stroke-linejoin:miter;stroke-miterlimit:10;stroke-opacity:1;stroke-dasharray:none"
               id="path124"
               inkscape:connector-curvature="0" /></g><g
             id="g126"><g
               id="g128"
               clip-path="url(#clipPath130)"><path
                 d="M 2153,4288 1343,3919"
                 style="fill:none;stroke:#000000;stroke-width:9;stroke-linecap:butt;stroke-linejoin:miter;stroke-miterlimit:10;stroke-opacity:1;stroke-dasharray:none"
                 id="path134"
                 inkscape:connector-curvature="0" /></g></g><g
             id="g136"><path
               d="m 1433,3985.6 -72,-58.2 91.2,17.4"
               style="fill:none;stroke:#000000;stroke-width:9;stroke-linecap:butt;stroke-linejoin:miter;stroke-miterlimit:10;stroke-opacity:1;stroke-dasharray:none"
               id="path138"
               inkscape:connector-curvature="0" /></g><g
             id="g140"><g
               id="g142"
               clip-path="url(#clipPath144)"><path
                 d="m 2585,4144 0,-225"
                 style="fill:none;stroke:#000000;stroke-width:9;stroke-linecap:butt;stroke-linejoin:miter;stroke-miterlimit:10;stroke-opacity:1;stroke-dasharray:none"
                 id="path148"
                 inkscape:connector-curvature="0" /></g></g><g
             id="g150"><path
               d="m 2562.2,4028.8 22.8,-90 22.2,90"
               style="fill:none;stroke:#000000;stroke-width:9;stroke-linecap:butt;stroke-linejoin:miter;stroke-miterlimit:10;stroke-opacity:1;stroke-dasharray:none"
               id="path152"
               inkscape:connector-curvature="0" /></g><g
             id="g154"><g
               id="g156"
               clip-path="url(#clipPath158)"><path
                 d="m 3017,4288 864,-369"
                 style="fill:none;stroke:#000000;stroke-width:9;stroke-linecap:butt;stroke-linejoin:miter;stroke-miterlimit:10;stroke-opacity:1;stroke-dasharray:none"
                 id="path162"
                 inkscape:connector-curvature="0" /></g></g><g
             id="g164"><path
               d="m 3771.2,3941.8 91.8,-15 -74.4,56.4"
               style="fill:none;stroke:#000000;stroke-width:9;stroke-linecap:butt;stroke-linejoin:miter;stroke-miterlimit:10;stroke-opacity:1;stroke-dasharray:none"
               id="path166"
               inkscape:connector-curvature="0" /></g><g
             id="g168"><g
               id="g170"
               clip-path="url(#clipPath172)"><path
                 d="m 1073,3154 0,-936"
                 style="fill:none;stroke:#000000;stroke-width:9;stroke-linecap:butt;stroke-linejoin:miter;stroke-miterlimit:10;stroke-opacity:1;stroke-dasharray:none"
                 id="path176"
                 inkscape:connector-curvature="0" /></g></g><g
             id="g178"><path
               d="m 1050.2,2327.8 22.8,-90 22.2,90"
               style="fill:none;stroke:#000000;stroke-width:9;stroke-linecap:butt;stroke-linejoin:miter;stroke-miterlimit:10;stroke-opacity:1;stroke-dasharray:none"
               id="path180"
               inkscape:connector-curvature="0" /></g><g
             id="g182"><g
               id="g184"
               clip-path="url(#clipPath186)"><path
                 d="m 1073,1462 0,-747"
                 style="fill:none;stroke:#000000;stroke-width:9;stroke-linecap:butt;stroke-linejoin:miter;stroke-miterlimit:10;stroke-opacity:1;stroke-dasharray:none"
                 id="path190"
                 inkscape:connector-curvature="0" /></g></g><g
             id="g192"><path
               d="m 1050.2,824.8 22.8,-90 22.2,90"
               style="fill:none;stroke:#000000;stroke-width:9;stroke-linecap:butt;stroke-linejoin:miter;stroke-miterlimit:10;stroke-opacity:1;stroke-dasharray:none"
               id="path194"
               inkscape:connector-curvature="0" /></g><g
             id="g196"><g
               id="g198"
               clip-path="url(#clipPath200)"><path
                 d="M 2378,3190 2045,2965"
                 style="fill:none;stroke:#000000;stroke-width:9;stroke-linecap:butt;stroke-linejoin:miter;stroke-miterlimit:10;stroke-opacity:1;stroke-dasharray:none"
                 id="path204"
                 inkscape:connector-curvature="0" /></g></g><g
             id="g206"><path
               d="m 2123,3046 -61.8,-69.6 87,31.8"
               style="fill:none;stroke:#000000;stroke-width:9;stroke-linecap:butt;stroke-linejoin:miter;stroke-miterlimit:10;stroke-opacity:1;stroke-dasharray:none"
               id="path208"
               inkscape:connector-curvature="0" /></g><g
             id="g210"><g
               id="g212"
               clip-path="url(#clipPath214)"><path
                 d="m 2810,3181 612,-189"
                 style="fill:none;stroke:#000000;stroke-width:9;stroke-linecap:butt;stroke-linejoin:miter;stroke-miterlimit:10;stroke-opacity:1;stroke-dasharray:none"
                 id="path218"
                 inkscape:connector-curvature="0" /></g></g><g
             id="g220"><path
               d="m 3309.8,3003.4 93,-5.4 -79.8,48.6"
               style="fill:none;stroke:#000000;stroke-width:9;stroke-linecap:butt;stroke-linejoin:miter;stroke-miterlimit:10;stroke-opacity:1;stroke-dasharray:none"
               id="path222"
               inkscape:connector-curvature="0" /></g><g
             id="g224"><g
               id="g226"
               clip-path="url(#clipPath228)"><path
                 d="M 3962,3190 3827,2992"
                 style="fill:none;stroke:#000000;stroke-width:9;stroke-linecap:butt;stroke-linejoin:miter;stroke-miterlimit:10;stroke-opacity:1;stroke-dasharray:none"
                 id="path232"
                 inkscape:connector-curvature="0" /></g></g><g
             id="g234"><path
               d="m 3870.2,3095.8 -31.8,-87.6 69,61.8"
               style="fill:none;stroke:#000000;stroke-width:9;stroke-linecap:butt;stroke-linejoin:miter;stroke-miterlimit:10;stroke-opacity:1;stroke-dasharray:none"
               id="path236"
               inkscape:connector-curvature="0" /></g><g
             id="g238"><g
               id="g240"
               clip-path="url(#clipPath242)"><path
                 d="M 1910,2668 1793,2371"
                 style="fill:none;stroke:#000000;stroke-width:9;stroke-linecap:butt;stroke-linejoin:miter;stroke-miterlimit:10;stroke-opacity:1;stroke-dasharray:none"
                 id="path246"
                 inkscape:connector-curvature="0" /></g></g><g
             id="g248"><path
               d="m 1812.2,2482 -12,-92.4 53.4,75.6"
               style="fill:none;stroke:#000000;stroke-width:9;stroke-linecap:butt;stroke-linejoin:miter;stroke-miterlimit:10;stroke-opacity:1;stroke-dasharray:none"
               id="path250"
               inkscape:connector-curvature="0" /></g><g
             id="g252"><g
               id="g254"
               clip-path="url(#clipPath256)"><path
                 d="M 1712,2218 1559,2020"
                 style="fill:none;stroke:#000000;stroke-width:9;stroke-linecap:butt;stroke-linejoin:miter;stroke-miterlimit:10;stroke-opacity:1;stroke-dasharray:none"
                 id="path260"
                 inkscape:connector-curvature="0" /></g></g><g
             id="g262"><path
               d="m 1608.2,2120.8 -37.2,-85.2 72.6,57.6"
               style="fill:none;stroke:#000000;stroke-width:9;stroke-linecap:butt;stroke-linejoin:miter;stroke-miterlimit:10;stroke-opacity:1;stroke-dasharray:none"
               id="path264"
               inkscape:connector-curvature="0" /></g><g
             id="g266"><g
               id="g268"
               clip-path="url(#clipPath270)"><path
                 d="m 3584,1822 -2025,0"
                 style="fill:none;stroke:#000000;stroke-width:9;stroke-linecap:butt;stroke-linejoin:miter;stroke-miterlimit:10;stroke-opacity:1;stroke-dasharray:none"
                 id="path274"
                 inkscape:connector-curvature="0" /></g></g><g
             id="g276"><path
               d="m 1668.8,1844.8 -90,-22.8 90,-22.2"
               style="fill:none;stroke:#000000;stroke-width:9;stroke-linecap:butt;stroke-linejoin:miter;stroke-miterlimit:10;stroke-opacity:1;stroke-dasharray:none"
               id="path278"
               inkscape:connector-curvature="0" /></g><g
             id="g280"><g
               id="g282"
               clip-path="url(#clipPath284)"><path
                 d="m 3719,2668 351,-477"
                 style="fill:none;stroke:#000000;stroke-width:9;stroke-linecap:butt;stroke-linejoin:miter;stroke-miterlimit:10;stroke-opacity:1;stroke-dasharray:none"
                 id="path288"
                 inkscape:connector-curvature="0" /></g></g><g
             id="g290"><path
               d="m 3986,2266.6 72,-59.4 -35.4,86.4"
               style="fill:none;stroke:#000000;stroke-width:9;stroke-linecap:butt;stroke-linejoin:miter;stroke-miterlimit:10;stroke-opacity:1;stroke-dasharray:none"
               id="path292"
               inkscape:connector-curvature="0" /></g><g
             id="g294"><g
               id="g296"
               clip-path="url(#clipPath298)"><path
                 d="M 4043,1462 2612,760"
                 style="fill:none;stroke:#000000;stroke-width:9;stroke-linecap:butt;stroke-linejoin:miter;stroke-miterlimit:10;stroke-opacity:1;stroke-dasharray:none"
                 id="path302"
                 inkscape:connector-curvature="0" /></g></g><g
             id="g304"><path
               d="m 2700.8,829 -70.8,-60 90.6,19.8"
               style="fill:none;stroke:#000000;stroke-width:9;stroke-linecap:butt;stroke-linejoin:miter;stroke-miterlimit:10;stroke-opacity:1;stroke-dasharray:none"
               id="path306"
               inkscape:connector-curvature="0" /></g><g
             id="g308"><g
               id="g310"
               clip-path="url(#clipPath312)"><path
                 d="M 4259,1462 3800,922"
                 style="fill:none;stroke:#000000;stroke-width:9;stroke-linecap:butt;stroke-linejoin:miter;stroke-miterlimit:10;stroke-opacity:1;stroke-dasharray:none"
                 id="path316"
                 inkscape:connector-curvature="0" /></g></g><g
             id="g318"><path
               d="m 3853.4,1020.4 -40.8,-83.4 75,54.6"
               style="fill:none;stroke:#000000;stroke-width:9;stroke-linecap:butt;stroke-linejoin:miter;stroke-miterlimit:10;stroke-opacity:1;stroke-dasharray:none"
               id="path320"
               inkscape:connector-curvature="0" /></g><g
             id="g322"><g
               id="g324"
               clip-path="url(#clipPath326)"><path
                 d="M 4421,1462 4862,760"
                 style="fill:none;stroke:#000000;stroke-width:9;stroke-linecap:butt;stroke-linejoin:miter;stroke-miterlimit:10;stroke-opacity:1;stroke-dasharray:none"
                 id="path330"
                 inkscape:connector-curvature="0" /></g></g><g
             id="g332"><path
               d="m 4784,841.6 67.2,-64.8 -29.4,88.2"
               style="fill:none;stroke:#000000;stroke-width:9;stroke-linecap:butt;stroke-linejoin:miter;stroke-miterlimit:10;stroke-opacity:1;stroke-dasharray:none"
               id="path334"
               inkscape:connector-curvature="0" /><g
               id="g336"
               transform="scale(10,10)"><text
                 transform="matrix(1,0,0,-1,151.4,225.4)"
                 id="text338"><tspan
                   style="font-size:9px;font-variant:normal;font-weight:bold;writing-mode:lr-tb;fill:#000000;fill-opacity:1;fill-rule:nonzero;stroke:none;font-family:Helvetica-Narrow;-inkscape-font-specification:Helvetica-Narrow-Bold"
                   x="0 5.3280001 9.8369999 14.346 17.216999 21.726 25.83 27.882 34.443001 38.547001 41.004002 43.056 47.564999"
                   y="0"
                   sodipodi:role="line"
                   id="tspan340">Approximation</tspan><tspan
                   style="font-size:9px;font-variant:normal;font-weight:bold;writing-mode:lr-tb;fill:#000000;fill-opacity:1;fill-rule:nonzero;stroke:none;font-family:Helvetica-Narrow;-inkscape-font-specification:Helvetica-Narrow-Bold"
                   x="-104.17 -97.204002 -92.695 -89.823997 -87.772003 -83.263 -81.210999 -77.107002 -72.598 -68.088997 -63.985001 -61.932999 -57.828999 -55.372002 -51.268002 -49.216 -44.707001 -42.25 -40.198002 -36.094002 -31.99 -29.533001"
                   y="26.1"
                   sodipodi:role="line"
                   id="tspan342">World consists of sets</tspan><tspan
                   style="font-size:9px;font-variant:normal;font-weight:bold;writing-mode:lr-tb;fill:#000000;fill-opacity:1;fill-rule:nonzero;stroke:none;font-family:Helvetica-Narrow;-inkscape-font-specification:Helvetica-Narrow-Bold"
                   x="-98.432518 -93.923523 -91.466522 -89.41452 -84.905518 -82.853523 -78.749519 -74.645523 -71.774521 -67.670517 -65.213516 -61.10952 -59.057522 -54.548519 -50.03952 -47.987518 -43.883518 -39.779518 -37.322521 -33.218521"
                   y="37.799999"
                   sodipodi:role="line"
                   id="tspan344">of discrete objects,</tspan><tspan
                   style="font-size:9px;font-variant:normal;font-weight:bold;writing-mode:lr-tb;fill:#000000;fill-opacity:1;fill-rule:nonzero;stroke:none;font-family:Helvetica-Narrow;-inkscape-font-specification:Helvetica-Narrow-Bold"
                   x="-98.221024 -95.764023 -91.25502 -87.151024 -85.099022 -82.22802 -80.176018 -76.072021 -73.615021 -71.15802 -68.287018 -66.235023 -61.726021 -57.217022 -54.760021 -50.656021 -46.552021 -44.500023 -40.396023 -35.88702"
                   y="51.299999"
                   sodipodi:role="line"
                   id="tspan346">their attributes and</tspan><tspan
                   style="font-size:9px;font-variant:normal;font-weight:bold;writing-mode:lr-tb;fill:#000000;fill-opacity:1;fill-rule:nonzero;stroke:none;font-family:Helvetica-Narrow;-inkscape-font-specification:Helvetica-Narrow-Bold"
                   x="-89.203049 -86.746048 -82.237053 -78.133049 -76.081055 -73.210052 -71.158051 -68.287048 -64.183052 -62.13105 -58.02705 -55.570049 -53.518051 -49.009052 -44.50005"
                   y="63.900002"
                   sodipodi:role="line"
                   id="tspan348">their relations</tspan><tspan
                   style="font-size:9px;font-variant:normal;font-weight:bold;writing-mode:lr-tb;fill:#000000;fill-opacity:1;fill-rule:nonzero;stroke:none;font-family:Helvetica-Narrow;-inkscape-font-specification:Helvetica-Narrow-Bold"
                   x="-104.37245 -97.406448 -92.897453 -90.026451 -87.974449 -83.465454 -81.413452 -77.309448 -72.800453 -68.291451 -64.187454 -62.135452 -58.031452 -55.574451 -51.470451 -49.418449 -44.909451 -42.45245 -40.400452 -37.943451 -33.434452 -31.38245 -29.33045"
                   y="-142.2"
                   sodipodi:role="line"
                   id="tspan350">World consists of fully</tspan><tspan
                   style="font-size:9px;font-variant:normal;font-weight:bold;writing-mode:lr-tb;fill:#000000;fill-opacity:1;fill-rule:nonzero;stroke:none;font-family:Helvetica-Narrow;-inkscape-font-specification:Helvetica-Narrow-Bold"
                   x="-94.121452 -89.61245 -85.508453 -83.051453 -80.999451 -76.490448 -72.386452 -67.877449 -65.825455 -61.721451 -57.212452 -52.703449 -50.651451 -48.19445 -43.685452 -41.63345 -39.581451"
                   y="-128.7"
                   sodipodi:role="line"
                   id="tspan352">defined and fully</tspan><tspan
                   style="font-size:9px;font-variant:normal;font-weight:bold;writing-mode:lr-tb;fill:#000000;fill-opacity:1;fill-rule:nonzero;stroke:none;font-family:Helvetica-Narrow;-inkscape-font-specification:Helvetica-Narrow-Bold"
                   x="-80.99955 -76.490555 -72.386551 -69.92955 -67.877548 -63.368549 -59.264549 -54.75555 -52.703552"
                   y="-116.1"
                   sodipodi:role="line"
                   id="tspan354">definable</tspan><tspan
                   style="font-size:9px;font-variant:normal;font-weight:bold;writing-mode:lr-tb;fill:#000000;fill-opacity:1;fill-rule:nonzero;stroke:none;font-family:Helvetica-Narrow;-inkscape-font-specification:Helvetica-Narrow-Bold"
                   x="-91.664452 -87.155449 -82.646454 -80.594452 -76.490448 -72.386452 -69.929451 -65.825455 -63.773453 -59.669453 -55.16045 -52.703449 -50.651451 -48.19445 -46.142452 -42.038452"
                   y="-102.6"
                   sodipodi:role="line"
                   id="tspan356">objects/entities</tspan><tspan
                   style="font-size:9px;font-variant:normal;font-weight:bold;writing-mode:lr-tb;fill:#000000;fill-opacity:1;fill-rule:nonzero;stroke:none;font-family:Helvetica-Narrow;-inkscape-font-specification:Helvetica-Narrow-Bold"
                   x="-96.78994 -91.047943 -86.53894 -84.486938 -80.382942 -76.278938 -73.821938 -69.717941 -67.665939 -63.561939 -59.05294 -54.543941 -50.439941 -48.387939 -44.283939 -41.826942 -39.77494 -35.265942"
                   y="174.60001"
                   sodipodi:role="line"
                   id="tspan358">Objects consist of</tspan><tspan
                   style="font-size:9px;font-variant:normal;font-weight:bold;writing-mode:lr-tb;fill:#000000;fill-opacity:1;fill-rule:nonzero;stroke:none;font-family:Helvetica-Narrow;-inkscape-font-specification:Helvetica-Narrow-Bold"
                   x="-105.81687 -101.71287 -97.608871 -95.151871 -91.047874 -88.995872 -84.48687 -82.029869 -79.977875 -75.873871 -73.821869 -67.260872 -62.751869 -60.699871 -56.595871 -53.724873 -51.672871 -47.163872 -42.654873 -40.602871 -36.498871 -32.394871 -29.937872 -25.833872"
                   y="189"
                   sodipodi:role="line"
                   id="tspan360">sets of simpler objects,</tspan><tspan
                   style="font-size:9px;font-variant:normal;font-weight:bold;writing-mode:lr-tb;fill:#000000;fill-opacity:1;fill-rule:nonzero;stroke:none;font-family:Helvetica-Narrow;-inkscape-font-specification:Helvetica-Narrow-Bold"
                   x="-108.06685 -105.60985 -101.10085 -96.996849 -94.944855 -92.073853 -90.021851 -85.917854 -83.460854 -81.003853 -78.132851 -76.080849 -71.571854 -67.062851 -64.60585 -60.50185 -56.39785 -54.345852 -52.29385 -49.422852 -45.318851 -43.26685 -39.162849 -36.705853 -34.653851 -30.144852 -25.635851"
                   y="200.7"
                   sodipodi:role="line"
                   id="tspan362">their attributes, relations</tspan><tspan
                   style="font-size:9px;font-variant:normal;font-weight:bold;writing-mode:lr-tb;fill:#000000;fill-opacity:1;fill-rule:nonzero;stroke:none;font-family:Helvetica-Narrow;-inkscape-font-specification:Helvetica-Narrow-Bold"
                   x="-81.206551 -77.102554 -72.593552 -68.084549 -66.032555 -63.161552 -58.65255 -56.600552 -52.496552"
                   y="214.2"
                   sodipodi:role="line"
                   id="tspan364">and rules</tspan></text>
<text
                 transform="matrix(1,0,0,-1,400.50235,342.4)"
                 id="text376"><tspan
                   style="font-size:9px;font-variant:normal;font-weight:bold;writing-mode:lr-tb;fill:#000000;fill-opacity:1;fill-rule:nonzero;stroke:none;font-family:Helvetica-Narrow;-inkscape-font-specification:Helvetica-Narrow-Bold"
                   x="0 4.1040001 8.6129999 12.717 15.174 17.226 21.33 23.382 25.434 29.538 33.641998 36.513 38.564999 42.668999 45.125999 47.178001 51.687"
                   y="0"
                   sodipodi:role="line"
                   id="tspan378">spatial variation</tspan><tspan
                   style="font-size:9px;font-variant:normal;font-weight:bold;writing-mode:lr-tb;fill:#000000;fill-opacity:1;fill-rule:nonzero;stroke:none;font-family:Helvetica-Narrow;-inkscape-font-specification:Helvetica-Narrow-Bold"
                   x="-7.5735102 -2.6505101 3.91049 8.4194899 12.92849 15.38549 19.894489 21.946489 23.998489 28.102489 32.611488 37.120491 39.577492 41.62949 46.138489 50.647491 55.15649 59.665489"
                   y="-16.200001"
                   sodipodi:role="line"
                   id="tspan380">Smooth, continuous</tspan><tspan
                   style="font-size:9px;font-variant:normal;font-weight:bold;writing-mode:lr-tb;fill:#000000;fill-opacity:1;fill-rule:nonzero;stroke:none;font-family:Helvetica-Narrow;-inkscape-font-specification:Helvetica-Narrow-Bold"
                   x="-174.53751 -172.08051 -169.6235 -165.51952 -161.41551 -157.31151 -153.2075 -151.15552 -147.05151 -144.59451 -142.54251 -138.03351 -133.52451"
                   y="310.5"
                   sodipodi:role="line"
                   id="tspan382">(tesselation)</tspan><tspan
                   style="font-size:9px;font-variant:normal;font-weight:bold;writing-mode:lr-tb;fill:#000000;fill-opacity:1;fill-rule:nonzero;stroke:none;font-family:Helvetica-Narrow;-inkscape-font-specification:Helvetica-Narrow-Bold"
                   x="-188.285 -183.77602 -181.72401 -177.62001 -173.51601 -170.645 -166.54102 -164.08401 -162.03201 -158.34201 -154.23801 -149.729 -147.67702 -143.57301 -139.06401 -136.19301 -133.73601 -129.632 -125.52801 -121.42401"
                   y="294.29999"
                   sodipodi:role="line"
                   id="tspan384">discretized surfaces</tspan><tspan
                   style="font-size:9px;font-variant:normal;font-weight:bold;writing-mode:lr-tb;fill:#000000;fill-opacity:1;fill-rule:nonzero;stroke:none;font-family:Helvetica-Narrow;-inkscape-font-specification:Helvetica-Narrow-Bold"
                   x="-64.418007 -57.85701 -53.75301 -51.296009 -46.78701 -42.68301 -36.122009 -32.018009 -29.56101 -27.50901 -23.40501 -19.30101 -17.24901 -15.19701 -12.74001 -8.2310104 -3.7220099 0.38198999 2.83899 4.8909898 9.3999901 13.90899"
                   y="310.5"
                   sodipodi:role="line"
                   id="tspan386">mathematical functions</tspan><tspan
                   style="font-size:9px;font-variant:normal;font-weight:bold;writing-mode:lr-tb;fill:#000000;fill-opacity:1;fill-rule:nonzero;stroke:none;font-family:Helvetica-Narrow;-inkscape-font-specification:Helvetica-Narrow-Bold"
                   x="-57.438568 -53.334572 -48.825569 -44.31657 -41.85957 -39.807571 -35.298569 -30.78957 -26.280569 -21.77157 -17.66757 -15.61557 -11.51157 -4.9505701 -0.44157001 4.06743 6.5244298"
                   y="294.29999"
                   sodipodi:role="line"
                   id="tspan388">continuous smooth</tspan><tspan
                   style="font-size:9px;font-variant:normal;font-weight:bold;writing-mode:lr-tb;fill:#000000;fill-opacity:1;fill-rule:nonzero;stroke:none;font-family:Helvetica-Narrow;-inkscape-font-specification:Helvetica-Narrow-Bold"
                   x="75.98243 82.543427 86.64743 89.104431 93.613426 97.71743 104.27843 108.38243 110.83943 112.89143 116.99543 121.09943 123.15143 125.20343 127.66043 132.16943 136.67844 140.78242 143.23943 145.29143 149.80043 154.30943"
                   y="326.70001"
                   sodipodi:role="line"
                   id="tspan390">mathematical functions</tspan><tspan
                   style="font-size:9px;font-variant:normal;font-weight:bold;writing-mode:lr-tb;fill:#000000;fill-opacity:1;fill-rule:nonzero;stroke:none;font-family:Helvetica-Narrow;-inkscape-font-specification:Helvetica-Narrow-Bold"
                   x="85.108414 89.617409 94.126411 98.635406 102.94641 107.45541 109.50741 111.96441 114.42141 118.52541 121.39641 125.50041 130.00941 132.46642 134.51842 138.62241 143.13141 145.18341"
                   y="310.5"
                   sodipodi:role="line"
                   id="tspan392">non−differentiable</tspan><tspan
                   style="font-size:9px;font-variant:normal;font-weight:bold;writing-mode:lr-tb;fill:#000000;fill-opacity:1;fill-rule:nonzero;stroke:none;font-family:Helvetica-Narrow;-inkscape-font-specification:Helvetica-Narrow-Bold"
                   x="96.286308 100.39031 104.89931 109.40831 111.86531 113.91731 118.42631 122.93531 127.44431 131.95331 136.05731"
                   y="294.29999"
                   sodipodi:role="line"
                   id="tspan394">continuous,</tspan><tspan
                   style="font-size:9px;font-variant:normal;font-weight:bold;writing-mode:lr-tb;fill:#000000;fill-opacity:1;fill-rule:nonzero;stroke:none;font-family:Helvetica-Narrow;-inkscape-font-specification:Helvetica-Narrow-Bold"
                   sodipodi:role="line"
                   id="tspan396"
                   y="-5.4000001"
                   x="-186.50269 -181.99368 -179.1227 -177.07069 -175.01869 -170.50969 -166.40569 -161.89668 -155.33569 -150.82669 -148.77469 -144.67068 -142.21368 -138.1097 -136.05769 -131.95369 -129.90169 -125.39269 -121.28869 -118.83169 -116.77969 -112.27069 -108.16669 -103.65769 -101.60569">or incompletely definable</tspan><tspan
                   style="font-size:9px;font-variant:normal;font-weight:bold;writing-mode:lr-tb;fill:#000000;fill-opacity:1;fill-rule:nonzero;stroke:none;font-family:Helvetica-Narrow;-inkscape-font-specification:Helvetica-Narrow-Bold"
                   x="-178.70872 -176.65672 -172.14772 -168.04372 -163.53471 -156.97372 -152.46472 -150.41272 -146.30872 -143.85172 -139.74773 -137.69572 -133.59172 -131.53972 -127.03072 -122.92672 -120.46972 -118.41772 -113.90872 -109.80472"
                   y="-18.9"
                   sodipodi:role="line"
                   id="tspan398">Incompletely defined</tspan><tspan
                   style="font-size:9px;font-variant:normal;font-weight:bold;writing-mode:lr-tb;fill:#000000;fill-opacity:1;fill-rule:nonzero;stroke:none;font-family:Helvetica-Narrow;-inkscape-font-specification:Helvetica-Narrow-Bold"
                   x="-232.76282 -227.43481 -222.92583 -218.41682 -215.54582 -211.03682 -206.93282 -202.82883 -198.31982 -194.21582 -189.70682 -187.65482 -183.14581"
                   y="58.5"
                   sodipodi:role="line"
                   id="tspan400">Approached by</tspan><tspan
                   style="font-size:9px;font-variant:normal;font-weight:bold;writing-mode:lr-tb;fill:#000000;fill-opacity:1;fill-rule:nonzero;stroke:none;font-family:Helvetica-Narrow;-inkscape-font-specification:Helvetica-Narrow-Bold"
                   x="-222.30933 -220.25732 -215.74832 -213.29132 -209.18732 -206.31631 -202.21233 -197.70332 -193.59932"
                   y="70.199997"
                   sodipodi:role="line"
                   id="tspan402">inference</tspan><tspan
                   style="font-size:9px;font-variant:normal;font-weight:bold;writing-mode:lr-tb;fill:#000000;fill-opacity:1;fill-rule:nonzero;stroke:none;font-family:Helvetica-Narrow;-inkscape-font-specification:Helvetica-Narrow-Bold"
                   x="-79.618317 -74.290321 -69.781319 -65.272324 -62.401321 -57.892319 -53.788319 -49.684319 -45.17532 -41.07132 -36.562321 -34.510319 -32.053322 -27.544319 -24.673321 -20.16432 -15.65532 -11.14632 -6.63732 -4.58532 -0.48131999 3.6226799 10.18368 14.69268 16.74468 18.79668 23.305679"
                   y="58.5"
                   sodipodi:role="line"
                   id="tspan404">Approached through sampling</tspan><tspan
                   style="font-size:9px;font-variant:normal;font-weight:bold;writing-mode:lr-tb;fill:#000000;fill-opacity:1;fill-rule:nonzero;stroke:none;font-family:Helvetica-Narrow;-inkscape-font-specification:Helvetica-Narrow-Bold"
                   x="-60.551922 -56.447922 -51.938919 -47.42992 -45.377918 -40.868919 -37.997921 -35.945919 -33.893921 -29.38492 -26.927919 -22.823919 -19.952921 -15.44392 -10.93492 -8.8829203 -4.7789202 -2.3219199 -0.26991999 4.23908"
                   y="70.199997"
                   sodipodi:role="line"
                   id="tspan406">and/or interpolation</tspan><tspan
                   style="font-size:9px;font-variant:normal;font-weight:bold;writing-mode:lr-tb;fill:#000000;fill-opacity:1;fill-rule:nonzero;stroke:none;font-family:Helvetica-Narrow;-inkscape-font-specification:Helvetica-Narrow-Bold"
                   x="-172.24692 -167.73792 -165.68591 -163.63393 -161.17693 -157.07292 -154.20192 -152.14992 -147.64091 -143.13193 -141.07993 -136.97592 -132.46692"
                   y="153.89999"
                   sodipodi:role="line"
                   id="tspan408">Filtering and</tspan><tspan
                   style="font-size:9px;font-variant:normal;font-weight:bold;writing-mode:lr-tb;fill:#000000;fill-opacity:1;fill-rule:nonzero;stroke:none;font-family:Helvetica-Narrow;-inkscape-font-specification:Helvetica-Narrow-Bold"
                   x="-182.08838 -177.57938 -173.07037 -171.01839 -166.91438 -162.81038 -160.35338 -158.30138 -155.43037 -151.32639 -147.22238 -142.71338 -138.20438 -133.69537 -131.64339 -129.18639 -127.13438 -122.62538"
                   y="170.10001"
                   sodipodi:role="line"
                   id="tspan410">object recognition</tspan><tspan
                   style="font-size:9px;font-variant:normal;font-weight:bold;writing-mode:lr-tb;fill:#000000;fill-opacity:1;fill-rule:nonzero;stroke:none;font-family:Helvetica-Narrow;-inkscape-font-specification:Helvetica-Narrow-Bold"
                   x="-93.915283 -88.58728 -84.078278 -77.517281 -73.008278 -70.956284 -66.85228 -62.74828 -60.696281 -56.592281 -52.083279 -47.57428 -45.117279 -43.065281 -38.556278 -34.047279 -29.943279 -27.891279 -23.787279 -19.683281 -15.17428 -13.12228 -8.6132803 -4.5092802 -2.4572799 0.41372001 4.5177202 9.02672 11.89772 16.00172 20.105721 24.209721 28.718719 31.17572 35.27972 39.788719 41.840721 46.34972 50.45372"
                   y="264.60001"
                   sodipodi:role="line"
                   id="tspan412">Complex continua can be represented by:</tspan></text>
<text
                 transform="matrix(1,0,0,-1,236.39937,435.1)"
                 id="text414"><tspan
                   style="font-size:12.60000038000000089px;font-style:italic;font-variant:normal;font-weight:bold;writing-mode:lr-tb;fill:#000000;fill-opacity:1;fill-rule:nonzero;stroke:none;font-family:Delicious;-inkscape-font-specification:Delicious"
                   x="0 7.4591999 14.3514 21.8106 28.123199 30.996 37.308601"
                   y="0"
                   sodipodi:role="line"
                   id="tspan416">REALITY</tspan></text>
<text
                 transform="matrix(1,0,0,-1,382.67337,172.3)"
                 id="text418"><tspan
                   style="font-size:9px;font-variant:normal;font-weight:bold;writing-mode:lr-tb;fill:#000000;fill-opacity:1;fill-rule:nonzero;stroke:none;font-family:Helvetica-Narrow;-inkscape-font-specification:Helvetica-Narrow-Bold"
                   x="0 4.1040001 10.665 15.174 19.683001 22.139999 26.649 28.701 30.753 34.856998 39.366001 43.875 46.332001 48.383999 52.893002 57.402 61.910999 66.419998 70.524002 72.575996 75.032997 77.084999 81.189003 83.240997 87.75"
                   y="0"
                   sodipodi:role="line"
                   id="tspan420">smooth, continuous fields</tspan><tspan
                   style="font-size:9px;font-variant:normal;font-weight:bold;writing-mode:lr-tb;fill:#000000;fill-opacity:1;fill-rule:nonzero;stroke:none;font-family:Helvetica-Narrow;-inkscape-font-specification:Helvetica-Narrow-Bold"
                   x="14.9669 21.932899 26.4419 29.312901 31.364901 35.873901 37.9259 42.0299 46.538898 51.047901 55.151901 57.203899 61.307899 63.7649 67.868896 69.920898 74.429901"
                   y="-16.200001"
                   sodipodi:role="line"
                   id="tspan422">World consists of</tspan><tspan
                   style="font-size:9px;font-variant:normal;font-weight:bold;writing-mode:lr-tb;fill:#000000;fill-opacity:1;fill-rule:nonzero;stroke:none;font-family:Helvetica-Narrow;-inkscape-font-specification:Helvetica-Narrow-Bold"
                   x="-149.8091 -145.70509 -141.19611 -137.0921 -134.6351 -132.5831 -128.4791 -126.4271 -124.3751 -120.2711 -115.7621 -113.3051 -111.2531 -108.7961 -106.7441 -102.6401"
                   y="-162"
                   sodipodi:role="line"
                   id="tspan424">spatial entities</tspan></text>
</g></g></g></g></g><g
       id="g426"
       transform="translate(3.459129,-209.7615)"><g
         id="g428"
         transform="translate(332.4958,0)"><g
           id="g430"
           transform="translate(-26.3539,0)" /></g></g><text
       xml:space="preserve"
       style="font-size:32px;font-style:normal;font-variant:normal;font-weight:500;font-stretch:normal;line-height:125%;letter-spacing:0px;word-spacing:0px;fill:#000000;fill-opacity:1;stroke:none;font-family:Delicious;-inkscape-font-specification:Delicious Medium"
       x="236.23395"
       y="-19.032604"
       id="text3197"
       sodipodi:linespacing="125%"
       transform="scale(1,-1)"><tspan
         sodipodi:role="line"
         id="tspan3199"
         x="236.23395"
         y="-19.032604"
         style="font-size:8px">Conceptual Models</tspan></text>
<text
       xml:space="preserve"
       style="font-size:32px;font-style:normal;font-variant:normal;font-weight:500;font-stretch:normal;line-height:125%;letter-spacing:0px;word-spacing:0px;fill:#000000;fill-opacity:1;stroke:none;font-family:Delicious;-inkscape-font-specification:Delicious Medium"
       x="258.38535"
       y="82.511864"
       id="text3197-5"
       sodipodi:linespacing="125%"
       transform="scale(1,-1)"><tspan
         sodipodi:role="line"
         id="tspan3199-0"
         x="258.38535"
         y="82.511864"
         style="font-size:8px">Data Models</tspan></text>
<text
       xml:space="preserve"
       style="font-size:32px;font-style:normal;font-variant:normal;font-weight:500;font-stretch:normal;line-height:125%;letter-spacing:0px;word-spacing:0px;fill:#000000;fill-opacity:1;stroke:none;font-family:Delicious;-inkscape-font-specification:Delicious Medium"
       x="251.86392"
       y="154.09114"
       id="text3197-5-9"
       sodipodi:linespacing="125%"
       transform="scale(1,-1)"><tspan
         sodipodi:role="line"
         id="tspan3199-0-7"
         x="251.86392"
         y="154.09114"
         style="font-size:8px">Representation</tspan></text>
</g></svg>